<svg width="12" height="12" viewBox="0 0 12 12" fill="none" xmlns="http://www.w3.org/2000/svg">
<g clip-path="url(#clip0_14_122)">
<path d="M8.80641 7.7582C9.53263 6.76721 9.8579 5.53857 9.71714 4.31806C9.57638 3.09756 8.97997 1.9752 8.04723 1.17555C7.1145 0.37589 5.91422 -0.042098 4.68654 0.00520688C3.45885 0.0525117 2.2943 0.561621 1.42586 1.43068C0.557424 2.29974 0.0491483 3.46466 0.00272196 4.69237C-0.0437044 5.92009 0.375142 7.12007 1.17547 8.05223C1.97579 8.9844 3.09857 9.58 4.31917 9.71989C5.53978 9.85978 6.7682 9.53363 7.75866 8.8067H7.75791C7.77991 8.8367 7.80441 8.86545 7.83141 8.89295L10.7189 11.7804C10.8595 11.9212 11.0503 12.0003 11.2493 12.0003C11.4482 12.0004 11.6391 11.9215 11.7798 11.7808C11.9205 11.6402 11.9996 11.4494 11.9997 11.2505C11.9998 11.0515 11.9208 10.8607 11.7802 10.7199L8.89266 7.83245C8.86586 7.80529 8.83703 7.78097 8.80641 7.7582ZM8.99991 4.8752C8.99991 5.4169 8.89321 5.9533 8.68591 6.45377C8.47861 6.95424 8.17477 7.40897 7.79173 7.79201C7.40868 8.17506 6.95395 8.4789 6.45348 8.6862C5.95301 8.8935 5.41661 9.0002 4.87491 9.0002C4.33321 9.0002 3.79681 8.8935 3.29634 8.6862C2.79587 8.4789 2.34114 8.17506 1.95809 7.79201C1.57505 7.40897 1.27121 6.95424 1.06391 6.45377C0.856607 5.9533 0.74991 5.4169 0.74991 4.8752C0.74991 3.78118 1.18451 2.73197 1.9581 1.95838C2.73168 1.1848 3.78089 0.750199 4.87491 0.750199C5.96893 0.750199 7.01814 1.1848 7.79173 1.95838C8.56531 2.73197 8.99991 3.78118 8.99991 4.8752Z" fill="black"/>
</g>
<defs>
<clipPath id="clip0_14_122">
<rect width="12" height="12" fill="white"/>
</clipPath>
</defs>
</svg>
